<svg id="Layer_1" data-name="Layer 1" xmlns="http://www.w3.org/2000/svg" viewBox="0 0 443 65"><path d="M26.52,22.61v1.8c0,5.18-1.58,8.42-5.11,10.08v.14c4.25,1.66,5.9,5.4,5.9,10.73v4.1c0,7.78-4.1,12-12,12H2.83V11h12C23,11,26.52,14.84,26.52,22.61ZM10.75,18.22V31.54h3.1c3,0,4.75-1.3,4.75-5.33V23.41c0-3.6-1.22-5.18-4-5.18Zm0,20.52V54.22h4.54c2.66,0,4.1-1.22,4.1-5V44.86c0-4.68-1.51-6.12-5.11-6.12Z"/><path d="M40,32.26H50.85v7.2H40V54.22H53.66v7.2H32.06V11h21.6v7.2H40Z"/><path d="M58.55,11h7.92v43.2h13v7.2h-21Z"/><path d="M83,11h7.92v50.4H83Z"/><path d="M104.56,32.26h10.87v7.2H104.56V54.22h13.68v7.2H96.64V11h21.6v7.2H104.56Z"/><path d="M135,52.14h.14l6-41.12h7.27l-7.78,50.4H128.83L121,11h8Z"/><path d="M160,32.26h10.87v7.2H160V54.22h13.68v7.2h-21.6V11h21.6v7.2H160Z"/><path d="M282.33,61.43h-8L273,52.28h-9.72l-1.37,9.15h-7.27L262.67,11h11.59Zm-18.07-16h7.63l-3.74-25.49H268Z"/><path d="M308.9,42.63v6.7c0,8.06-4,12.67-11.81,12.67s-11.81-4.61-11.81-12.67V23.12c0-8.06,4-12.67,11.81-12.67s11.81,4.61,11.81,12.67V28h-7.49v-5.4c0-3.6-1.58-5-4.1-5s-4.1,1.37-4.1,5V49.83c0,3.6,1.58,4.9,4.1,4.9s4.1-1.3,4.1-4.9v-7.2Z"/><path d="M321.64,61.43h-7.92V11h7.92v21.6h9V11h8.06v50.4h-8.06V39.82h-9Z"/><path d="M344.46,11h7.92v50.4h-7.92Z"/><path d="M366.06,32.26h10.87v7.2H366.06V54.22h13.68v7.2h-21.6V11h21.6v7.2H366.06Z"/><path d="M396.52,52.14h.14l6-41.12h7.27l-7.78,50.4H390.33L382.55,11h8Z"/><path d="M421.5,32.26h10.87v7.2H421.5V54.22h13.68v7.2h-21.6V11h21.6v7.2H421.5Z"/><polygon points="216.74 -0.15 227.3 21.26 250.92 24.69 233.83 41.35 237.86 64.87 216.74 53.77 195.61 64.87 199.64 41.35 182.55 24.69 206.17 21.26 216.74 -0.15"/></svg>