<?xml version="1.0" encoding="utf-8"?>
<!-- Generator: Adobe Illustrator 21.0.2, SVG Export Plug-In . SVG Version: 6.00 Build 0)  -->
<svg version="1.1" id="Layer_1" xmlns="http://www.w3.org/2000/svg" xmlns:xlink="http://www.w3.org/1999/xlink" x="0px" y="0px"
	 viewBox="0 0 502.7 105.9" style="enable-background:new 0 0 502.7 105.9;" xml:space="preserve">
<g>
	<path fill="#eaeaea" d="M75.7,23.7c-1.2,2.5-2.7,5.1-4.4,7.8c-1.7,2.7-2.9,5.4-3.7,7.8c-1.5,2.1-2.6,4.2-3.3,6.2c-0.7,2-1.6,4.1-2.7,6.3
		c-1.3,2.5-2.4,5-3.3,7.5c-0.8,2.5-1.7,5-2.6,7.5c-1.1,2-2.1,3.9-3.2,5.8c-1.1,1.9-2,3.8-2.9,5.7c-1.3,3.2-4.3,7.6-9,13.3
		c-4.7,5.7-8.6,9.4-11.8,11c-0.7,0.4-1.5,0.8-2.3,1.2c-0.8,0.4-1.5,0.8-2.1,1.2c-1.2,0.7-2.6,1-4,0.8c-6.3-0.4-11.4-2.8-15.4-7
		c-2.7-2.6-4.3-6.3-4.9-11c0-0.3,0-0.6,0-1.1c0-0.5,0-1.1-0.1-1.9c0.2-1.6,0.7-3.5,1.5-5.6c0.5-1.2,1-2.5,1.5-3.7
		c0.5-1.2,1-2.4,1.5-3.5c3.1-6.6,6.7-11.8,10.8-15.8c5.5-5.4,12.2-10.2,20.1-14.4c1.2-0.6,2.5-1.1,3.9-1.5c1.5-0.4,2.9-0.8,4.3-1.3
		c1.8-0.3,3.6,0.5,5.6,2.4c1,0.9,0.8,1.7-0.4,2.4c-0.6,0.4-1.1,0.7-1.5,0.7c-2.5,0.2-4.8,0.9-7,2.1c-2.2,1.2-4.4,2.4-6.5,3.5
		c-2.1,1.2-4.1,2.7-5.9,4.3c-1.8,1.6-3.6,3.1-5.4,4.7c-1.4,1.2-2.7,2.6-3.8,4c-1.1,1.4-2.2,2.8-3.4,4.3c-0.1,0.2-0.5,0.8-1.2,2
		c-0.7,1.2-1.4,2.5-2.1,3.8c-0.7,1.3-1.3,2.5-1.9,3.7c-0.8,1.6-1.2,2.6-1.2,2.9c-0.5,1.9-1,3.7-1.5,5.5c-0.4,1.8-0.8,3.5-1.2,5.3
		C5.6,93,6.5,94.9,8.8,96c2.2,1.8,5.1,2.7,8.5,2.7c1,0.1,1.9-0.1,2.8-0.5c4.1-1.8,7.6-4.6,10.6-8.4c0.6-0.8,1.3-1.6,2-2.4
		c0.7-0.8,1.4-1.7,2-2.7c0.8-0.8,1.6-1.8,2.3-2.9c1.6-2.8,3.2-5.6,4.7-8.2c1.6-2.7,3-5.5,4.3-8.5c1.2-2.9,2.5-5.9,3.9-8.8
		c1.4-3,2.7-6,4.1-9.1c0.6-1.5,1.3-3,1.9-4.5c0.7-1.5,1.4-3.1,2.2-4.7c0.3-0.8,0.7-1.6,1.3-2.3c0.6-0.8,1-1.6,1.4-2.5
		c0.3-0.6,0.7-1.1,1.3-1.4c0.6-0.3,0.9-0.9,1-1.7c0-0.6,0.4-1.8,1.2-3.6c0.6-1.4,1.2-2.8,1.7-4.3c0.5-1.4,1.1-2.9,1.8-4.4
		c1-2.9,2.3-5.9,3.9-8.9c0.1-0.4,0.2-0.7,0.4-1.1c0.2-0.4,0.4-0.8,0.5-1.1c-2,1.9-4.1,3.2-6.1,4.1c-1,0.8-1.6,1.2-1.7,1.3
		c-0.2,0.3-0.4,0.5-0.8,0.8c-1,0.4-1.9,0.8-2.7,1.3c-0.8,0.5-1.6,1-2.4,1.4c-1,0.5-1.9,1.1-2.7,1.7c-0.8,0.6-1.8,1-2.9,1.3
		c-1.3,0.7-3.4,1.6-6.3,2.8c-3.5,1.2-6.9,2-10.4,2.3c-4.8,0.4-8.9-0.2-12.4-2c-1.6-0.7-1.9-1.7-0.8-3.1c0.7-0.9,1.6-1.2,2.8-1.1
		c0.4,0.1,0.8,0.3,1.5,0.5c2.4,1,4.8,1.5,7.3,1.5c0.7,0,1.5,0,2.3-0.1c0.8,0,1.5-0.2,2.3-0.5c0.6-0.2,1.3-0.3,2-0.5
		c0.7-0.1,1.5-0.3,2.3-0.5c2.7-0.6,5.5-1.7,8.4-3.2c3.7-1.8,5.7-2.7,5.9-2.9c0.3-0.1,1.3-0.7,3.2-1.9c1.2-0.6,2.3-1.3,3.5-2
		c1.2-0.7,2.3-1.5,3.6-2.4C69.1,5.1,70,4.4,71,3.7c0.9-0.8,1.8-1.6,2.6-2.6c0.4-0.4,0.8-0.5,1.1-0.4h0.3l0.3,0.1
		c0.8,0.6,1.8,1.3,2.9,2.1c1.2,0.8,2.1,1.4,2.9,1.9c1,0.6,1.5,1.5,1.5,2.5c0,2.4-0.4,4.4-1.2,6c-1.1,1.9-2.1,3.6-3.1,5.3
		C77.1,20.3,76.3,22,75.7,23.7z M4.3,77.4c-0.1,0.2-0.2,0.4-0.3,0.5c-0.1,0.2-0.2,0.3-0.2,0.4c0,0.1,0,0.3,0.1,0.7
		c0.2-0.3,0.3-0.4,0.3-0.5C4.2,78.3,4.3,77.9,4.3,77.4z M7.6,71.2H7.4l-0.7,1.5L6,74.2l-0.8,1.7l-0.9,1.5l0.9-1.5l0.9-1.6l0.8-1.5
		L7.6,71.2z M7.6,71.2c0.4-0.4,0.7-0.9,0.7-1.7C7.8,69.9,7.6,70.4,7.6,71.2z M8.4,69.4H8.2H8.4z M8.4,69.4c0.3-0.1,0.5-0.2,0.7-0.3
		c0.2-0.1,0.4-0.3,0.5-0.6c0.6-0.9,1.3-1.9,1.9-2.9c0.7-1.1,1.3-2.1,1.9-3.2l0.7-1.3C11.3,63.1,9.4,65.9,8.4,69.4z M14.1,60.9
		c2.8-2.5,5.9-5.5,9.3-9.2l-1.2,0.4c-1.2,1.2-2.5,2.4-3.8,3.5c-1.3,1.1-2.5,2.3-3.5,3.5c-0.4,0.4-0.6,0.7-0.6,1
		C14.3,60.5,14.2,60.7,14.1,60.9z M14.1,60.9V61V60.9z M56,51.5l-1.3,0.7c0,1.2-0.3,2.1-0.9,2.9c-0.6,0.8-1.1,1.7-1.5,2.7
		c-0.6,1-1,1.8-1.1,2.4c-0.1,1.5-0.8,2.6-2,3.3c-0.8,0.6-1.2,1.3-1.2,2c-0.1,0-0.2,0.1-0.3,0.3c0,0.1,0,0.2,0.1,0.3
		c0,0.1,0.1,0.2,0.2,0.2c0,2.1-0.8,3.7-2.3,4.7c-0.4,0.2-0.5,0.6-0.5,1.2c0,0.4-0.1,0.5-0.3,0.5c-0.9,0-1.4,0.3-1.5,0.9
		c-0.1,0.6-0.2,1.2-0.3,1.9h0.1c-0.3,0.4-0.5,1.1-0.6,2c-0.1,0.9-0.3,1.6-0.6,2l-0.4,1.2c-0.8,1.3-1.6,2.7-2.5,4.1
		c-0.8,1.4-1.6,2.7-2.3,4c-0.1,0.2-0.1-0.6-0.1-2.3c-0.4,0.3-0.7,0.8-0.7,1.7c0,0.9-0.1,1.5-0.3,1.7c-1,1.2-2,2.4-3.2,3.5
		c-1.2,1.1-2.1,2.2-2.8,3.5c-0.6,0.4-1.2,1-1.7,1.7s-1.1,1.1-1.7,1.4c-0.8,0.5-1.6,0.9-2.4,1.1s-1.6,0.5-2.4,0.9
		c-0.1,0.1-0.1,0.3-0.1,0.5c0.3,0.1,0.5,0.1,0.7,0.1c1.8-0.6,3.1-1.2,3.9-1.6c1.2-0.7,2.1-1.3,2.7-1.9c1.6-1.4,3.1-2.9,4.6-4.3
		s2.9-3.1,4.3-5c0.9-1.5,1.8-3,2.7-4.5s1.8-3,2.7-4.6c0.9-1.4,2.2-3.8,4-7c0.3-2.3,1.1-4.5,2.5-6.5c1.4-2,2.5-4.3,3.2-6.8
		c0-0.1,0-0.2,0.1-0.3c1.7-1.7,2.3-3.1,1.9-4.4c0,0.1,0.1-0.2,0.4-0.8C55.9,54.2,56.2,53.1,56,51.5z M23.5,51.7l0.8-0.8v-0.1
		L23.5,51.7h-0.1H23.5z M24.3,50.8c1.3,0,2.3-0.7,3.1-2.1C26.1,48.7,25,49.4,24.3,50.8z M27.5,48.5h-0.1v0.1L27.5,48.5z M27.5,48.5
		h0.1c0-0.1,0-0.2,0-0.4L27.5,48.5z M36,43c-0.3,0.4-0.3,0.6,0,0.7s0.4,0.3,0.3,0.6c0.1,0.3,0,0.6-0.3,1.1c1.2-0.2,1.9-0.7,2.4-1.6
		c0.6-0.3,1.2-0.5,1.7-0.7c0.5-0.2,1.1-0.5,1.7-0.7c0.2-0.3,0.4-0.4,0.5-0.5c-0.5-0.2-0.8-0.3-0.9-0.3c-0.6,0.3-1.2,0.5-1.7,0.7
		c-0.5,0.2-1,0.5-1.4,0.7C37.8,42.3,37,42.3,36,43z M35.9,45.6l0.1-0.3L35.9,45.6z M36.7,86.5v-0.1V86.5z M56.9,15.6
		c-0.5-0.4-1.2-0.4-1.9-0.3c-2.2,0.7-4.2,1.6-6,2.7c-0.9,0.6-2.7,1.3-5.3,2c-0.9,0.3-2.4,0.8-4.4,1.5c-0.2,0-0.4,0.1-0.5,0.3v0.3
		c0,0.1,0,0.2,0.1,0.3h0.1c1.9-0.4,3.4-0.7,4.4-0.9c0.5,0,1.2-0.1,1.9-0.2c0.8-0.1,1.4-0.4,1.9-0.9c0.3-0.2,0.7-0.3,1.2-0.3
		c0.3-0.1,0.5-0.2,0.7-0.3c0.2-0.1,0.5-0.3,0.7-0.5c0.7-0.5,1.9-1.1,3.7-1.7c0.4-0.3,1-0.5,1.5-0.8C55.8,16.4,56.4,16,56.9,15.6z
		 M53.7,52.1c-0.2,0.1-0.4,0.3-0.5,0.5c0,0.1,0.1,0.2,0.3,0.4c0.2-0.1,0.3-0.2,0.3-0.3C53.7,52.4,53.7,52.2,53.7,52.1z M53.9,52.1
		h-0.1H53.9z M54.4,52.1c-0.2-0.6-0.4-0.6-0.5,0H54.4z M54.4,52.1h0.3H54.4z M56.1,51.2v0.3H56C56.1,51.5,56.1,51.4,56.1,51.2z
		 M61.4,40.4c0-0.4,0-0.6,0.1-0.8c-0.2-0.1-0.3-0.2-0.3-0.3H61c-0.4,0.3-0.7,0.5-1.1,0.8c-0.4,0.3-0.6,0.5-0.7,0.8
		c-0.6,1.9-1.3,3.6-1.9,5.3c-0.7,1.6-1.1,3.3-1.3,5c0.7-0.1,1.2-0.6,1.3-1.5c0.4-2,1.2-4.3,2.7-6.6c0.3-0.3,0.5-0.6,0.7-1.1
		C61,41.5,61.2,41,61.4,40.4z M56.9,15.6l0.1-0.1L56.9,15.6z M70.5,7c-0.6-0.1-1.2-0.2-1.7-0.3c-0.2,0.1-0.7,0.4-1.5,0.9
		c-0.5,0.3-1,0.6-1.5,0.9c-0.5,0.3-1,0.6-1.4,0.9c-0.6,0.4-1,0.8-1.2,0.9c-0.5,0.4-0.9,0.7-1.2,0.8c-1,0.2-1.7,0.6-2.3,1.2
		c-0.5,0.6-1.1,1.1-1.7,1.5c-0.1,0.1-0.3,0.3-0.5,0.7l-0.4,0.9c0.7-0.1,1.9-0.8,3.7-2c0.2,0,0.4-0.1,0.5-0.3
		c0.2-0.2,0.4-0.3,0.8-0.4c1.3-0.6,2.6-1.4,3.9-2.3c1.3-0.9,2.5-1.7,3.7-2.5C70,7.9,70.3,7.6,70.5,7z M64.5,33.5
		c0.3-0.2,0.2-0.3-0.1-0.3h-0.3c-1,0.4-1.5,1-1.6,1.8c-0.1,0.8-0.3,1.5-0.5,2.2c0.1,0.2,0.2,0.3,0.3,0.3c0.1,0,0.2,0,0.4,0
		C63.7,35.9,64.3,34.6,64.5,33.5z M66.1,29.3l-0.4,0.1c0.2-0.1-0.2,0.5-1.2,1.7c0.3,0.3,0.4,0.4,0.5,0.4c0.2,0,0.3,0,0.3-0.1
		c0.1-0.4,0.2-0.7,0.5-0.9c0.2-0.3,0.4-0.6,0.6-0.9C66.2,29.4,66.1,29.3,66.1,29.3z M70.5,7h0.1H70.5z M70.6,7c0.1,0,0.2,0,0.4-0.1
		V6.8h-0.3L70.6,7z M72.4,5.9c0.1-0.1,0.1-0.2,0.1-0.3V5.3l-0.3,0.3L72.4,5.9z M73,3.9c0,0.1,0,0.1,0.1,0.1c0-0.1,0-0.1,0.1-0.1
		l-0.1-0.1L73,3.9z"/>
	<path  fill="#eaeaea" d="M77,67.8c-0.7-0.9-0.8-1.6-0.1-2.1c0-0.2,0.2-0.6,0.7-1.3c2.7-4.3,4.5-9.5,5.6-15.6c0.6-4.1-0.1-7.8-2.3-11.2
		c-0.4-0.6-1-1.6-1.6-3.1C79,34,79,33.3,79.4,32.5c0.4-0.8,0.8-0.9,1.1-0.3c1,1.4,2.5,2.3,4.5,2.7c1.2,0.3,2.1,1.1,2.9,2.4
		c0.4,0.9,0.7,1.8,1.1,2.9c0.4,1,0.9,2,1.4,2.9c0.1,0.1,0.1,0.3,0.1,0.7c-0.2,1.3-0.2,2.7-0.1,4c0.1,1.3,0,2.6-0.1,3.9
		c-1.3,6.3-4.1,12.3-8.2,18.1c-1.2,1.5-2.1,2.7-2.7,3.5c-1.1,1.5-2.4,2.7-3.9,3.7c-1.5,0.9-3,1.8-4.5,2.6c-2,1-3.8,0.6-5.5-1.1
		c-2.3-2.2-3.4-5.1-3.3-8.6c0.4-5.6,1.6-11.1,3.7-16.5c0.5-1.3,1.5-3.2,2.9-5.6c0.6-1.2,1.5-2.3,2.5-3.1c1.1-0.8,2.2-1.7,3.3-2.6
		c0.7-0.5,1.7-0.5,3.1,0c0.7,0.4,1.4,0.8,2,1.2c0.9,0.9,1,1.8,0.3,2.7c-0.6,0.7-1.6,1.6-2.8,2.5c-0.9,0.9-1.4,1.7-1.5,2.4
		c-0.1,0.4-0.6,1.2-1.5,2.3c-2.3,3-3.9,6.3-4.7,10c-0.5,1.7-1,3.4-1.4,5.1c-0.4,1.7-0.6,3.4-0.6,5.2c0,0.3,0,0.5,0,0.7
		c0,0.2,0,0.5,0,0.7c0,0.6,0.3,0.8,0.9,0.7c0.9-0.4,1.4-0.7,1.6-0.8c1.4-0.5,2.6-1.4,3.5-2.6c0.9-1.2,1.7-2.4,2.2-3.5
		c1.5-0.3,2.6-0.3,3.3-0.2c0.7,0.1,1.2-0.5,1.6-1.8c-0.4-0.3-0.6-0.4-0.7-0.4c-0.4,0-0.8,0.1-1.2,0.4c-0.4,0.2-0.8,0.5-0.9,0.9
		c-0.2,0.4-0.6,0.7-1.2,0.7H77z M87.4,49.2c-0.2-0.2-0.3-0.3-0.4-0.3c-0.3-0.1-0.5,0-0.7,0.1L85.9,50c0,0.8-0.3,2-0.9,3.5
		c-0.4,0.9-0.8,1.8-1.2,2.7c-0.4,0.9-0.7,1.8-0.9,2.7c0,0.4,0.1,0.7,0.3,0.7h0.5c0.9-0.4,1.5-1.2,1.9-2.3c0.8-3.2,1.5-5.6,2-7.3
		c0-0.1,0-0.2-0.1-0.3C87.4,49.7,87.4,49.5,87.4,49.2z M84.3,37.8l0.1-0.1h-0.1V37.8z M87.4,44.7c0-0.1-0.1-0.2-0.3-0.4l-0.4,0.5
		c0,0.4,0.1,0.6,0.3,0.7c0,0.2,0,0.4,0.1,0.5l0.3-0.4V44.7z"/>
	<path  fill="#eaeaea" d="M105.1,57.6c-1.2-0.3-1.8-0.4-1.7-0.4c-1,0.4-1.5,0.6-1.6,0.8c-3.4,4.6-5.5,9.6-6.3,14.9v1.5c0,2.5,1.2,3.4,3.5,2.7
		c0.6-0.3,1.1-0.5,1.3-0.8c2.7-2,5.9-4.7,9.6-8c3.6-3.3,6.8-6.3,9.4-8.8c0-0.1,0.2-0.2,0.7-0.4c0,0.2,0,0.4,0.1,0.8
		c-1.2,2-3.9,5.2-7.9,9.5c-4,4.3-6.8,6.7-8.3,7.2c-1,1-1.9,1.7-2.8,2.1c-2,1.2-3.9,1.5-5.7,0.9c-1.9-0.7-3.1-2.1-3.7-4.2
		c-1.5-4.3-1.6-8.4-0.3-12.1c2.6-8,6.5-14.4,11.8-19.2c0.6-0.6,1.4-1.2,2.2-1.7c0.8-0.5,1.7-1,2.5-1.7c1.2-0.8,2.7-1,4.5-0.7
		c2.5,0.9,4.4,1.9,5.9,2.9c1.2,1.1,1.4,2.4,0.8,3.9c-2.4,4.9-6.1,8.3-11,10.2c-0.6,0.4-1.2,0.5-1.7,0.5
		C105.7,57.6,105.3,57.6,105.1,57.6z M96.8,60c0.7-0.1,1.2-0.8,1.5-2.3c0.3-0.1,0.5-0.3,0.7-0.5c0-0.1,0-0.2,0-0.3
		c-0.1,0-0.2,0-0.4,0.1c0,0.1,0,0.3,0,0.7C97.5,58.4,97,59.2,97,60c-0.5,0.9-0.8,1.5-0.8,1.7c-1,0.9-1.6,1.9-2,3
		c-0.4,1.1-0.7,2.2-1.1,3.4c0,0.1,0.1,0.2,0.4,0.4l0.3-0.1c0.3-1.1,0.7-2.1,1.3-3.3c0.6-1.1,0.9-2.3,0.9-3.7
		C96.4,61,96.6,60.5,96.8,60z M101.3,53.2l0.3-0.1c0.1-0.1,0.1-0.2,0.1-0.3c-0.1,0-0.1,0-0.1,0.1C101.4,53,101.3,53.1,101.3,53.2z
		 M116.4,45.4c-0.5-0.7-0.7-1.1-0.5-1.1c-0.6-0.3-1.1-0.2-1.5,0.1c-0.9,0.8-1.8,1.6-2.8,2.3c-1,0.8-1.9,1.5-2.7,2.3
		c-0.7,0.7-1.4,1.5-2,2.3c-0.6,0.8-1.2,1.5-1.9,2.1v0.7c0.2,0.3,0.4,0.4,0.8,0.4c4.3-1.5,7.5-3.9,9.7-7.2c0.2-0.4,0.3-0.7,0.4-1.1
		C116.1,45.9,116.2,45.6,116.4,45.4z"/>
	<path  fill="#eaeaea" d="M112.9,76.3c0.2-1.2,0.4-2.2,0.5-2.9c0.4-1.1,0.7-2.1,1.1-3.3c0.4-1.1,0.6-2.2,0.8-3.4c1.9-6.3,3.2-10.4,3.9-12.3
		c0.8-1.9,1.6-3.8,2.6-5.8c0.9-2.1,1.8-4.3,2.8-6.5c1-2.2,1.9-4.4,2.8-6.7c1.2-3.1,2.7-6.2,4.3-9.2c1.6-3.1,3.2-6.1,4.8-9.1
		c0.4-0.7,1-1.9,1.6-3.5c0.3-1,0.8-1.2,1.6-0.7c1,0.5,2.3,1.4,3.9,2.5c1.3,1.2,1.6,2.6,0.9,4.4c-0.4,0.8-0.8,1.5-1.2,2.1
		c-3.1,4.4-5.5,8.8-7.2,13c-0.5,1.1-1.1,2.1-1.7,3.1c-0.6,1-1.2,2.1-1.6,3.1c-1.9,4.3-4,9.6-6.5,16c-2.5,6.4-4.4,11.8-5.7,16.2
		c-0.9,2.7-1.5,5.5-1.9,8.4c-0.2,1.3,0.4,1.9,1.9,1.6c1.5-0.4,2.8-1.2,3.9-2.1c0.1-0.1,0.3-0.1,0.7-0.1c0,0.1,0,0.2,0.1,0.3
		c0,0.1,0.1,0.2,0.1,0.3c-0.3,1.1-0.8,1.6-1.6,1.7c-0.9,0.9-2.5,1.8-4.9,2.6c-2.3,0.8-4.1-1-5.4-5.5C113.1,78.7,113,77.3,112.9,76.3
		z M115.4,74.6c0.4-0.4,0.7-0.9,1-1.4c0.3-0.5,0.6-1,0.9-1.5c0.1-0.1,0.1-0.3,0.1-0.5l-0.4-0.9c-0.3-0.3-0.6-0.2-0.9,0.3
		c-0.6,0.7-0.9,2-0.9,3.9c0,0.1,0,0.2,0,0.3H115.4z M121.3,55.1l0.7-0.3c0-0.1,0-0.2-0.1-0.4c0-0.2-0.1-0.4-0.1-0.5
		c-0.4,0.3-0.5,0.4-0.5,0.3V55.1z M138.3,60.1c-1.1,0.9-2.9,4-5.4,9.4c-2.5,5.4-4.3,8.7-5.3,9.9c0,0.1-0.5,0.8-1.6,2.1
		c-0.6-0.5-0.8-0.9-0.7-1.1c0.3-0.7,2.1-4.3,5.7-10.8c3.5-6.5,5.4-9.9,5.7-10c0.6-0.5,1.1-0.6,1.4-0.3
		C138.4,59.7,138.5,59.9,138.3,60.1z M128.3,41.2c-0.1,0-0.2-0.1-0.3-0.2c-0.1-0.1-0.2-0.2-0.4-0.2c-0.1,0-0.2,0.1-0.4,0.4
		c0.2,0.2,0.3,0.3,0.4,0.3C127.9,41.5,128.2,41.4,128.3,41.2z M129.4,35.9v0.3c0-0.2,0-0.3,0-0.4c0.1,0,0.2,0,0.4,0.1
		c0.2,0,0.4,0.1,0.5,0.1c0,0.3,0.1,0.4,0.3,0.4c0.4,0,0.6-0.1,0.8-0.4v-0.1c-0.1-0.4-0.3-0.4-0.7-0.1l-0.5,0.3
		C130,35.6,129.8,35.6,129.4,35.9z M133.3,31.3c-0.1,0-0.2,0-0.3,0c0,0.1,0,0.2,0,0.3h0.3V31.3z"/>
	<path  fill="#eaeaea" d="M218.9,10.2c-0.7-0.2-1.2-0.2-1.5-0.1c-0.5,0-1,0-1.5,0.1c-0.4,0-0.8,0.1-1.2,0.1l-0.4,0.1h0.1c-0.9,0-1.7,0.2-2.4,0.5
		c-3.1,1.2-6.1,2.5-9,3.7c-2.9,1.2-5.7,2.8-8.3,4.7c-0.4,0.4-0.9,0.6-1.3,0.8c-0.4,0.2-0.8,0.4-1.1,0.5c-0.8,0.6-1.6,1.2-2.4,1.7
		c-0.8,0.5-1.5,1.2-2,2c-0.1,0.2-0.5,0.4-1.2,0.8c-0.1,0-0.1,0-0.1,0.1c-5.6,4.3-11,9.8-16.2,16.2c-2.7,3.3-4.9,7.7-6.6,13.3
		c-0.3,0.9-0.4,1.8-0.4,2.8c-0.2,0.9,0.2,1.4,1.2,1.5c1.1,0.2,2.2,0.1,3.3-0.3c1.6-0.5,3.2-1,4.9-1.5c1.6-0.5,3.3-1,4.9-1.4
		c2.5-0.7,5-0.9,7.6-0.5c5.1,1,8.6,3.9,10.8,8.9c1.3,3.3,0.9,6.3-1.2,9.2c-0.6,1-1.3,1.9-2,2.7c-0.7,0.8-1.4,1.7-2,2.6
		c-0.1,0-0.1,0.1-0.1,0.4c-2.9,2.1-5.8,4.2-8.5,6.3c-2.7,2.1-5.9,3.5-9.4,4.2c-1.2,0.4-2.2,0.5-3.2,0.5c-1.6,0.2-2.8-0.4-3.7-1.7
		c-0.4-0.4-0.8-0.9-1.4-1.3c-0.6-0.4-0.9-1-0.9-1.6c-0.1-0.8,0.2-2.3,0.9-4.4c1.9-4.4,4.8-8,8.8-10.6c0.5-0.3,1.1-0.3,1.6,0
		c0.4,0.4,0.7,0.7,1,0.9c0.3,0.3,0.6,0.5,0.9,0.8c0.1,0.1,0.1,0.4,0.1,0.9c-0.6,0.8-1.1,1.3-1.5,1.5c-1.6,1-2.8,2.2-3.7,3.6
		c-0.8,1.4-1.7,2.8-2.6,4.1c-0.6,0.8-0.4,1.2,0.7,1.2c3.6-0.3,6.6-1.3,8.8-3.1c1.4-1.2,2.8-2.5,4.3-3.7c1.4-1.2,2.8-2.5,4.1-3.9
		c1.8-1.8,3.1-4,4.1-6.7c0.1-0.4,0.3-1.1,0.5-2.1c0.1-2.6-1.2-3.9-3.7-4.1c-3.2-0.2-6.6,0.2-10.2,1.1c-2.7,0.8-4.7,1.4-6.1,1.9
		c-1.2,0.3-2.5,0.5-3.7,0.7c-1.2,0.2-2.4,0-3.7-0.5c-1.1-0.4-1.7-0.8-2-1.2c-1.2-1.3-2.4-2.8-3.5-4.4c-1.1-1.6-1.5-3.3-1.3-5.2
		c1.2-4.4,2.9-8.4,5.2-11.8c1-1.4,2-2.9,3-4.4c1-1.5,2.2-2.8,3.5-4c0.5-0.8,1.1-1.6,1.8-2.4c0.7-0.8,1.3-1.6,1.9-2.4
		c0.1-0.1,0.2-0.2,0.4-0.5c0.2-0.2,0.4-0.4,0.5-0.6c1.3-1.2,2.7-2.3,4.1-3.4c1.4-1.1,2.8-2.2,4.2-3.4c1.2-1.1,2.7-2.2,4.3-3.3h0.3
		c0.8-0.6,1.4-1,1.7-1.2c0.9-0.5,1.8-1.1,2.7-1.7c0.9-0.6,1.5-1,1.7-1.1c4.8-2.9,8.2-4.9,10.4-5.9c2-0.9,4.3-1.6,6.9-2.1
		c0.7,0,1.5,0,2.3-0.1c0.8,0,1.8-0.2,2.9-0.3c0.3-0.1,0.6-0.1,1.1,0c1.4,0,2.3,0,2.7,0.1c1.1,0.2,1.8,0.6,2.3,1.3
		c0.2,0.6,0.4,1,0.5,1.2c2.2,2.6,2.7,5.8,1.3,9.7c-2,6.1-5.5,11.7-10.5,16.6c-3.5,3.6-8,7.1-13.4,10.4c-1.9,1.2-4.6,2.4-8.2,3.3
		c-2.8,0.8-4.5-0.4-4.9-3.5c-0.4-1.6-0.1-3.1,0.9-4.4c0.8-0.8,1.5-1.2,2.1-1.1c0.9,0,1.8-0.2,2.7-0.6c0.9-0.4,1.8-0.8,2.7-1.1
		c2.1-0.6,4.1-1.6,5.9-3c1.8-1.4,3.5-2.8,5.1-4.3c1.1-0.9,2.1-1.8,3.1-2.7c1-0.9,2-1.8,3-2.7c1.2-1.7,2.2-2.9,2.9-3.6
		c1.7-1.8,3.2-4.6,4.5-8.4c0-0.1,0-0.2,0-0.3C218.9,10.7,218.9,10.5,218.9,10.2z M179.5,84.3c-0.3-0.2-0.4-0.3-0.5-0.3
		c0,0.1,0,0.2,0,0.3C179.3,84.3,179.5,84.3,179.5,84.3z M188.1,76.5v0.1c0.2-0.4,0.4-0.8,0.7-1.3c0.3-0.5,0.6-1,0.9-1.4v-0.7
		c-0.2,0.1-0.4,0.2-0.7,0.3c-0.6,0.6-1.6,1.6-2.8,3.1c-0.3,0.4-0.5,0.9-0.8,1.3c-0.3,0.4-0.5,0.8-0.7,1.3c0,0.1,0,0.2,0.1,0.3
		c0,0.1,0.1,0.2,0.1,0.3l0.9-0.4C186.3,78,187.1,77,188.1,76.5z M189.9,44.3c0.2-0.2,0.4-0.3,0.8-0.3
		C190.6,43.9,190.4,44,189.9,44.3z M190.8,17.3c0.4,0,0.5,0,0.5-0.1l0.5-0.9c-0.4,0-0.6,0-0.7,0.1L190.8,17.3z M193.8,43
		c0.4,0,0.5,0,0.5-0.1C194.1,42.9,194,43,193.8,43c-0.4,0.1-0.7,0.3-1.1,0.5c-0.4,0.3-0.6,0.3-0.7,0.1c0.3,0,0.5,0,0.7-0.1
		c0.1,0,0.2-0.1,0.4-0.2C193.3,43.2,193.5,43,193.8,43z M194,14.9l-0.1-0.4l-0.1,0.3L194,14.9z M195.1,11.4v0.4l0.7-0.4l-0.3-0.3
		C195.4,11.2,195.3,11.3,195.1,11.4z M196,13.2l-0.3,0.1l0.1,0.1L196,13.2z M196.8,42.3L197,42c-0.2-0.1-0.5-0.1-0.9-0.1
		c0.1,0,0.1,0.1,0.1,0.4c0.1,0,0.2,0,0.3,0S196.7,42.3,196.8,42.3z M197.2,10.4l-0.1-0.1l-0.1,0.1H197.2z M206.1,8
		c-0.4-0.1-1,0.2-1.6,0.8c-0.4-0.1-0.8,0.1-1.5,0.7c-0.4-0.1-1,0.2-1.6,0.8c-0.4-0.1-0.8,0.2-1.5,0.8c-0.5,0-1.1,0.3-1.6,0.8
		c-0.4,0-0.6,0-0.7,0.1c0.1,0,0,0.1-0.4,0.4h0.7c0.2-0.2,0.3-0.4,0.4-0.5c0.4,0.2,1-0.1,1.6-0.8c0.3,0.2,0.8-0.1,1.5-0.8
		c0.5,0.4,1.1,0.1,1.6-0.8c0.5,0.4,1,0.1,1.5-0.7C205.1,9,205.6,8.7,206.1,8c0.4,0,0.5-0.1,0.5-0.3C206.5,7.9,206.3,8,206.1,8z
		 M201.2,39.4c-1.9,0.7-2.9,1.2-3.2,1.6c-0.1,0.2-0.1,0.4-0.1,0.5l0.1,0.3c0.4-0.1,0.8-0.2,1.3-0.3c0.5-0.1,1.1-0.3,1.6-0.7
		c0.3,0,0.4-0.3,0.4-0.9L201.2,39.4z M198.3,15.3l0.1-0.1l-0.1-0.1V15.3z M201,13.7c0.6,0.3,1.1,0,1.5-0.8c0.6,0.3,1.2,0,1.6-0.8
		c1.4,0.3,2.8-0.3,4.3-1.7c1,0.4,2,0,3.1-1.5c0.4,0,0.7,0,0.7-0.1c-0.3,0-0.5,0-0.7,0.1c-1.2,0-2.3,0.5-3.1,1.5
		c-1.3-0.2-2.7,0.4-4.3,1.7c-0.5,0-1.1,0.3-1.6,0.9c-0.5-0.1-1,0.2-1.5,0.8c-0.4,0-0.7,0-0.7,0.1C200.5,14,200.7,13.9,201,13.7z
		 M202.3,7.3h-0.1l0.1,0.3V7.3z M205.3,36.4c-0.3,0.1-0.6,0.2-1.1,0.4c-0.9,0-1.5,0.3-1.9,0.9c-0.2,0.3-0.1,0.5,0.1,0.7
		c0.2,0,0.3,0,0.4,0c0.7-0.1,1.2-0.6,1.3-1.6c0.1,0,0.2,0,0.4-0.1c0.2-0.1,0.4-0.2,0.5-0.3c0.9-0.4,1.2-0.4,1.1-0.3
		c0.8-0.4,1.2-0.9,1.2-1.7c-0.1-0.1-0.1-0.2-0.1-0.3c-0.6-0.2-1.2,0.2-1.7,1.2C205.4,35.7,205.3,36.1,205.3,36.4z M208.1,7l0.1,0.1
		l0.1-0.1H208.1z M210.1,32.5c0.4-0.2,0.6-0.3,0.7-0.4v-0.7c-0.2,0-0.3,0-0.3,0.1c-0.1,0.2-0.2,0.4-0.3,0.5
		C210.2,32.2,210.1,32.4,210.1,32.5c-0.3,0.1-0.5,0.2-0.6,0.2c-0.1,0-0.2,0.1-0.3,0.1v0.8l0.3-0.1C209.6,33.2,209.9,32.9,210.1,32.5
		z"/>
	<path  fill="#eaeaea" d="M207.1,70.2c0,2.1,0.3,3.9,0.8,5.2c0.4,1.2,1.2,1.8,2.4,1.6c1.6-0.3,3.2-1.1,4.8-2.5c1.2-1.1,2.4-2.2,3.8-3.3
		c1.4-1.2,2.5-2.5,3.5-4c0.2-0.3,0.4-0.6,0.7-0.9c0.3-0.3,0.5-0.6,0.8-1c1.7-1.8,3.1-3.5,4.1-5.3c0.3-0.5,1.1-1.6,2.4-3.3
		c0.2-0.3,0.6-0.4,1.3-0.4c0.6,0.3,0.7,0.8,0.3,1.6c-0.8,1.2-1.6,2.2-2.3,3.3c-0.7,1-1.4,2-2.1,3c-0.2,0.3-0.4,0.5-0.6,0.7
		c-0.2,0.2-0.4,0.4-0.5,0.6c-1.2,1.9-2.6,3.5-4.1,5c-1.5,1.5-2.9,3-4.2,4.6c-1.1,1-2.7,2.3-4.9,4c-1.4,0.9-3,1-4.7,0.4
		c-2.7-1-4.8-3.1-6.1-6.4c-1-3.3-1.2-6.3-0.7-9c0.3-3.4,1.1-6.3,2.5-8.9c0.7-1.3,1.4-2.7,2.1-4c0.7-1.3,1.6-2.6,2.7-3.7
		c1-1.2,2-2.3,3.1-3.4c1.1-1.1,2.4-2.1,3.8-3.1c2.1-1.2,4.2-1.3,6.3-0.1c1,0.6,1.8,1.1,2.4,1.3c1.1,0.6,2,0.4,2.8-0.5
		c1.6-2.2,2.9-3.9,3.9-4.9c0.4-0.6,1-0.6,1.6,0.1c0.6,1,0.8,1.9,0.7,2.7c-0.4,2-1,3.5-1.6,4.3c-0.9,1.2-1.8,2.5-2.7,3.7
		c-0.9,1.2-1.7,2.5-2.5,3.7c-1.1,1.6-2.2,3.1-3.3,4.5c-1.1,1.4-2.1,2.9-2.9,4.4c-0.8,1.6-1.8,1.7-2.9,0.3c0.2,0.1,0-0.3-0.7-1.2
		c-0.7-0.8-0.7-1.7,0-2.8c1.7-2.4,3.6-5.2,5.7-8.4c0.4-0.5,0.6-1,0.8-1.5l-0.3-0.5c-1.7,0.7-2.9,1.4-3.7,2c-3.7,2.7-7,6.6-9.7,11.8
		C208.1,62.8,207.2,66.3,207.1,70.2z M204,64.2c-0.3,0.1-0.5,0.2-0.7,0.3c0,0.4,0,0.6,0.1,0.7c0,0.1,0.1,0.3,0.1,0.6
		c0.3,0,0.4,0,0.5,0.1c0.1,0,0.1-0.1,0.1-0.3C204.1,65.2,204.1,64.7,204,64.2z M208.1,49.5c-0.1,0-0.1-0.1-0.1-0.3
		c0.1,0.2,0.2,0.3,0.3,0.3c-0.3,0.3-0.9,1.4-2,3.3c-1,1.3-1.7,2.7-2.1,4c-0.4,1-0.4,1.5,0,1.5c0.4,0,0.8-0.3,1.1-0.9
		c0.1-0.3,0.2-0.6,0.5-0.9c0.2-0.4,0.4-0.8,0.6-1.2c1.5-3.4,3.6-6.2,6.4-8.4c1.4-1.2,2.5-2.2,3.2-2.9v-0.1c-0.1,0-0.2,0-0.3-0.1
		c-0.2,0.1-0.4,0.2-0.6,0.3c-0.2,0.1-0.4,0.1-0.5,0.1c-1.2,0.7-2.4,1.6-3.4,2.5C210.1,47.5,209.1,48.5,208.1,49.5z"/>
	<path  fill="#eaeaea" d="M240.9,67.8c-0.7-0.9-0.8-1.6-0.1-2.1c0-0.2,0.2-0.6,0.7-1.3c2.7-4.3,4.5-9.5,5.6-15.6c0.6-4.1-0.1-7.8-2.3-11.2
		c-0.4-0.6-1-1.6-1.6-3.1c-0.3-0.5-0.2-1.2,0.1-2.1c0.4-0.8,0.8-0.9,1.1-0.3c1,1.4,2.5,2.3,4.5,2.7c1.2,0.3,2.1,1.1,2.9,2.4
		c0.4,0.9,0.7,1.8,1.1,2.9c0.4,1,0.9,2,1.4,2.9c0.1,0.1,0.1,0.3,0.1,0.7c-0.2,1.3-0.2,2.7-0.1,4c0.1,1.3,0,2.6-0.1,3.9
		c-1.3,6.3-4.1,12.3-8.2,18.1c-1.2,1.5-2.1,2.7-2.7,3.5c-1.1,1.5-2.4,2.7-3.9,3.7c-1.5,0.9-3,1.8-4.5,2.6c-2,1-3.8,0.6-5.5-1.1
		c-2.3-2.2-3.4-5.1-3.3-8.6c0.4-5.6,1.6-11.1,3.7-16.5c0.5-1.3,1.5-3.2,2.9-5.6c0.6-1.2,1.5-2.3,2.5-3.1c1.1-0.8,2.2-1.7,3.3-2.6
		c0.7-0.5,1.7-0.5,3.1,0c0.7,0.4,1.4,0.8,2,1.2c0.9,0.9,1,1.8,0.3,2.7c-0.6,0.7-1.6,1.6-2.8,2.5c-0.9,0.9-1.4,1.7-1.5,2.4
		c-0.1,0.4-0.6,1.2-1.5,2.3c-2.3,3-3.9,6.3-4.7,10c-0.5,1.7-1,3.4-1.4,5.1c-0.4,1.7-0.6,3.4-0.6,5.2c0,0.3,0,0.5,0,0.7
		c0,0.2,0,0.5,0,0.7c0,0.6,0.3,0.8,0.9,0.7c0.9-0.4,1.4-0.7,1.6-0.8c1.4-0.5,2.6-1.4,3.5-2.6c0.9-1.2,1.7-2.4,2.2-3.5
		c1.5-0.3,2.6-0.3,3.3-0.2c0.7,0.1,1.2-0.5,1.6-1.8c-0.4-0.3-0.6-0.4-0.7-0.4c-0.4,0-0.8,0.1-1.2,0.4c-0.4,0.2-0.8,0.5-0.9,0.9
		c-0.2,0.4-0.6,0.7-1.2,0.7H240.9z M251.2,49.2c-0.2-0.2-0.3-0.3-0.4-0.3c-0.3-0.1-0.5,0-0.7,0.1l-0.4,0.9c0,0.8-0.3,2-0.9,3.5
		c-0.4,0.9-0.8,1.8-1.2,2.7c-0.4,0.9-0.7,1.8-0.9,2.7c0,0.4,0.1,0.7,0.3,0.7h0.5c0.9-0.4,1.5-1.2,1.9-2.3c0.8-3.2,1.5-5.6,2-7.3
		c0-0.1,0-0.2-0.1-0.3C251.3,49.7,251.2,49.5,251.2,49.2z M248.2,37.8l0.1-0.1h-0.1V37.8z M251.2,44.7c0-0.1-0.1-0.2-0.3-0.4
		l-0.4,0.5c0,0.4,0.1,0.6,0.3,0.7c0,0.2,0,0.4,0.1,0.5l0.3-0.4V44.7z"/>
	<path  fill="#eaeaea" d="M282.7,59.9c-1.3,2.7-3.1,6.4-5.4,11.2c-2.3,4.8-4.3,8.3-6.2,10.4c-2.2,2.7-4.6,4.4-7.2,4.9c-1.6,0.2-2.7,0.3-3.5,0.3
		c-2.7,0-4.4-1.2-5.3-3.5c-2.3-4.3-3-8.7-2-13.2c1.7-9,4.4-17.8,8.2-26.5c0.8-1.9,1.6-3.7,2.4-5.7c0.8-1.9,1.7-3.8,2.7-5.8
		c-0.3,0.1-0.6,0.1-1.1,0.1c-0.6,0-1.3,0-2,0.1c-0.7,0-1.4,0.1-2,0.1c-0.6,0.1-1.2,0.2-1.7,0.2c-0.5,0-1.1,0.1-1.7,0.1
		c-0.4,0-0.6-0.1-0.7-0.4c-0.4-0.4-0.4-0.7-0.3-1.1c0.3-0.6,0.5-1.1,0.7-1.5c0.4-0.4,0.8-0.7,1.3-0.7c1.7,0.2,3.2,0.1,4.5-0.1
		c0.1,0,0.2,0,0.3,0s0.3,0,0.6,0c0.6,0,1.2,0,1.7-0.1c0.5-0.1,1.1-0.2,1.7-0.3c1.1-1.7,2.1-3.3,3.3-5c1.1-1.6,2.1-3.3,3-5.1
		c0.3-0.2,0.5-0.5,0.7-1.1c0.5-1.1,0.9-1.7,1.1-1.9c1.2-0.3,2.5-0.3,3.9,0c2,0.4,3.1,1.8,3.1,4.3c0,0.3-0.1,0.5-0.2,0.8
		c-0.1,0.3-0.2,0.5-0.2,0.8l-4.4,7c0.1,0,0.2,0,0.3,0c0.1,0,0.3,0,0.5,0c0.6,0.1,1.3,0.1,2,0.1c0.7,0,1.4-0.1,2.1-0.1
		c0.5,0,1.3,0,2.2,0.1c0.9,0,1.7,0,2.3-0.1c0.4-0.1,0.6-0.1,0.7-0.1l0.3,0.3c0,0.4,0,0.7,0.1,1c0,0.3,0.2,0.6,0.3,0.9
		c0.3,0.8-0.1,1.3-1.2,1.6c-0.1,0-0.2,0-0.4,0c-0.7,0-1.4,0-2.2,0.1c-0.8,0-1.4,0-2.1-0.1c-2.4-0.2-4.7-0.2-7,0h-0.1
		c-3.3,5.3-6.2,11.3-8.8,17.8c-3.5,8.8-6.1,17-7.7,24.6c-0.7,3-0.7,5.7,0,8c0.4,1.4,1.2,2,2.5,1.7c4.5-0.9,8.4-4.3,11.6-10.2
		c3.2-5.9,5.7-10.7,7.4-14.4c0.3-0.9,0.7-1.2,1.3-0.8C282.7,59.1,282.9,59.5,282.7,59.9z M256,68.4c0.2-0.8,0.3-1.9,0.3-3.3
		c-0.2-0.2-0.3-0.4-0.3-0.5c-0.2,0-0.3,0.1-0.3,0.4c-0.3,1.5-0.4,2.3-0.4,2.4c0,1,0,1.9,0.1,2.7c0,0.8,0,1.6-0.2,2.4
		c0,0.1,0,0.3,0.1,0.5c0.2-0.3,0.3-0.4,0.3-0.5C255.8,70.1,255.9,68.8,256,68.4z M256.4,62.2c0,0.3,0,0.5,0,0.7l0.1,0.1
		c0.1-0.1,0.2-0.1,0.3-0.1c0.4-1.2,0.5-1.6,0.3-1.2l-0.1-0.4c-0.1,0.1-0.2,0.2-0.4,0.4C256.5,61.8,256.4,62,256.4,62.2z M257.1,59.1
		v0.3l0.4,0.4c0.1,0,0.2-0.1,0.4-0.4c-0.1,0.3,0-0.1,0.4-1.1c0-0.4,0.1-0.8,0.3-1.3c0.2-0.5,0.2-1,0.1-1.7c-0.6,0.4-1,0.8-1,1.4
		c0,0.6-0.2,1-0.3,1.4C257.2,58.3,257.1,58.6,257.1,59.1z M259.1,54c0.3-0.2,0.4-0.3,0.4-0.4c0.4-1.2,0.9-2.5,1.5-3.9
		c0.5-1.4,1.2-2.7,2-3.9c0.1-0.1,0.1-0.4,0.1-0.8c0-0.2-0.1-0.3-0.3-0.3c-0.2,0.6-0.5,0.9-1.1,0.9c-0.5,0-0.9,0.1-1.1,0.4
		c-0.4,0.4-0.4,0.7,0.1,0.7c0.4,0,0.6,0.2,0.5,0.7c-0.4,0.9-0.8,1.8-1.3,2.8c-0.2,0.6-0.4,1.2-0.6,1.7c-0.2,0.5-0.4,1.1-0.5,1.6
		c0,0.1,0,0.2,0.1,0.3C259.1,53.8,259.1,53.9,259.1,54z M265.2,38.6l-0.1-0.1c-0.4,0.4-0.7,0.7-1.1,0.9c-0.3,0.3-0.3,0.6,0,0.9
		c0.6,0.6,1.1,0.6,1.5,0c0.5-1.2,1-2.2,1.3-2.9c0-0.1,0-0.2-0.1-0.4c0-0.2-0.1-0.4-0.1-0.7c-0.3-0.3-0.4-0.4-0.5-0.4
		c-0.1,0-0.2,0.1-0.4,0.3c-0.2,0.7-0.5,1.2-0.9,1.6C264.8,37.7,264.9,38,265.2,38.6z M264.9,29.5l-0.3-0.1l-0.1,0.1l0.1,0.1
		L264.9,29.5c0.2,0.2,0.4,0.2,0.8,0c0.1,0.1,0.1,0.1,0.1,0h-0.1C265.5,29.4,265.3,29.4,264.9,29.5z M266.9,29.4h-0.1
		c-0.1,0-0.2,0-0.3,0.1h0.1C266.7,29.4,266.8,29.4,266.9,29.4z M267.7,34.3c0,0.2,0,0.4,0,0.5c0,0.2,0,0.3,0.1,0.4
		c0.1-0.1,0.1-0.2,0.1-0.4c0-0.1,0-0.2,0.1-0.4c0.1-0.2,0.2-0.4,0.4-0.7l-0.3-0.1c-0.3,0-0.4,0-0.4,0.1
		C267.8,33.9,267.7,34,267.7,34.3z M277.7,29.3l0.1-0.1h0.3c-0.1,0-0.2,0-0.3,0L277.7,29.3z M278.9,29l-0.1,0.1c0,0.1,0,0.1,0.1,0.1
		c0.2,0.2,0.4,0.1,0.8-0.1c0.1,0.2,0.2,0.2,0.3,0.1c-0.1,0-0.2,0-0.3,0C279.4,28.9,279.2,28.8,278.9,29z M280.8,29.3
		c-0.2-0.1-0.3-0.1-0.3,0c0.2,0,0.3,0,0.4,0c0.2,0.2,0.4,0.2,0.5,0h0.4c-0.2,0-0.3,0-0.4,0C281.2,29.2,281,29.2,280.8,29.3z"/>
	<path  fill="#eaeaea" d="M307,59.9c-1.3,2.7-3.1,6.4-5.4,11.2c-2.3,4.8-4.3,8.3-6.2,10.4c-2.2,2.7-4.6,4.4-7.2,4.9c-1.6,0.2-2.7,0.3-3.5,0.3
		c-2.7,0-4.4-1.2-5.3-3.5c-2.3-4.3-3-8.7-2-13.2c1.7-9,4.4-17.8,8.2-26.5c0.8-1.9,1.6-3.7,2.4-5.7c0.8-1.9,1.7-3.8,2.7-5.8
		c-0.3,0.1-0.6,0.1-1.1,0.1c-0.6,0-1.3,0-2,0.1c-0.7,0-1.4,0.1-2,0.1c-0.6,0.1-1.2,0.2-1.7,0.2c-0.5,0-1.1,0.1-1.7,0.1
		c-0.4,0-0.6-0.1-0.7-0.4c-0.4-0.4-0.4-0.7-0.3-1.1c0.3-0.6,0.5-1.1,0.7-1.5c0.4-0.4,0.8-0.7,1.3-0.7c1.7,0.2,3.2,0.1,4.5-0.1
		c0.1,0,0.2,0,0.3,0s0.3,0,0.6,0c0.6,0,1.2,0,1.7-0.1c0.5-0.1,1.1-0.2,1.7-0.3c1.1-1.7,2.1-3.3,3.3-5c1.1-1.6,2.1-3.3,3-5.1
		c0.3-0.2,0.5-0.5,0.7-1.1c0.5-1.1,0.9-1.7,1.1-1.9c1.2-0.3,2.5-0.3,3.9,0c2,0.4,3.1,1.8,3.1,4.3c0,0.3-0.1,0.5-0.2,0.8
		c-0.1,0.3-0.2,0.5-0.2,0.8l-4.4,7c0.1,0,0.2,0,0.3,0c0.1,0,0.3,0,0.5,0c0.6,0.1,1.3,0.1,2,0.1c0.7,0,1.4-0.1,2.1-0.1
		c0.5,0,1.3,0,2.2,0.1c0.9,0,1.7,0,2.3-0.1c0.4-0.1,0.6-0.1,0.7-0.1l0.3,0.3c0,0.4,0,0.7,0.1,1c0,0.3,0.2,0.6,0.3,0.9
		c0.3,0.8-0.1,1.3-1.2,1.6c-0.1,0-0.2,0-0.4,0c-0.7,0-1.4,0-2.2,0.1c-0.8,0-1.4,0-2.1-0.1c-2.4-0.2-4.7-0.2-7,0H300
		c-3.3,5.3-6.2,11.3-8.8,17.8c-3.5,8.8-6.1,17-7.7,24.6c-0.7,3-0.7,5.7,0,8c0.4,1.4,1.2,2,2.5,1.7c4.5-0.9,8.4-4.3,11.6-10.2
		c3.2-5.9,5.7-10.7,7.4-14.4c0.3-0.9,0.7-1.2,1.3-0.8C306.9,59.1,307.1,59.5,307,59.9z M280.2,68.4c0.2-0.8,0.3-1.9,0.3-3.3
		c-0.2-0.2-0.3-0.4-0.3-0.5c-0.2,0-0.3,0.1-0.3,0.4c-0.3,1.5-0.4,2.3-0.4,2.4c0,1,0,1.9,0.1,2.7c0,0.8,0,1.6-0.2,2.4
		c0,0.1,0,0.3,0.1,0.5c0.2-0.3,0.3-0.4,0.3-0.5C280,70.1,280.1,68.8,280.2,68.4z M280.6,62.2c0,0.3,0,0.5,0,0.7l0.1,0.1
		c0.1-0.1,0.2-0.1,0.3-0.1c0.4-1.2,0.5-1.6,0.3-1.2l-0.1-0.4c-0.1,0.1-0.2,0.2-0.4,0.4C280.7,61.8,280.6,62,280.6,62.2z M281.3,59.1
		v0.3l0.4,0.4c0.1,0,0.2-0.1,0.4-0.4c-0.1,0.3,0-0.1,0.4-1.1c0-0.4,0.1-0.8,0.3-1.3c0.2-0.5,0.2-1,0.1-1.7c-0.6,0.4-1,0.8-1,1.4
		c0,0.6-0.2,1-0.3,1.4C281.4,58.3,281.3,58.6,281.3,59.1z M283.3,54c0.3-0.2,0.4-0.3,0.4-0.4c0.4-1.2,0.9-2.5,1.5-3.9
		c0.5-1.4,1.2-2.7,2-3.9c0.1-0.1,0.1-0.4,0.1-0.8c0-0.2-0.1-0.3-0.3-0.3c-0.2,0.6-0.5,0.9-1.1,0.9c-0.5,0-0.9,0.1-1.1,0.4
		c-0.4,0.4-0.4,0.7,0.1,0.7c0.4,0,0.6,0.2,0.5,0.7c-0.4,0.9-0.8,1.8-1.3,2.8c-0.2,0.6-0.4,1.2-0.6,1.7c-0.2,0.5-0.4,1.1-0.5,1.6
		c0,0.1,0,0.2,0.1,0.3C283.3,53.8,283.3,53.9,283.3,54z M289.4,38.6l-0.1-0.1c-0.4,0.4-0.7,0.7-1.1,0.9c-0.3,0.3-0.3,0.6,0,0.9
		c0.6,0.6,1.1,0.6,1.5,0c0.5-1.2,1-2.2,1.3-2.9c0-0.1,0-0.2-0.1-0.4c0-0.2-0.1-0.4-0.1-0.7c-0.3-0.3-0.4-0.4-0.5-0.4
		c-0.1,0-0.2,0.1-0.4,0.3c-0.2,0.7-0.5,1.2-0.9,1.6C289,37.7,289.1,38,289.4,38.6z M289.1,29.5l-0.3-0.1l-0.1,0.1l0.1,0.1
		L289.1,29.5c0.2,0.2,0.4,0.2,0.8,0c0.1,0.1,0.1,0.1,0.1,0h-0.1C289.8,29.4,289.5,29.4,289.1,29.5z M291.1,29.4H291
		c-0.1,0-0.2,0-0.3,0.1h0.1C290.9,29.4,291,29.4,291.1,29.4z M291.9,34.3c0,0.2,0,0.4,0,0.5c0,0.2,0,0.3,0.1,0.4
		c0.1-0.1,0.1-0.2,0.1-0.4c0-0.1,0-0.2,0.1-0.4c0.1-0.2,0.2-0.4,0.4-0.7l-0.3-0.1c-0.3,0-0.4,0-0.4,0.1
		C292,33.9,291.9,34,291.9,34.3z M301.9,29.3l0.1-0.1h0.3c-0.1,0-0.2,0-0.3,0L301.9,29.3z M303.1,29l-0.1,0.1c0,0.1,0,0.1,0.1,0.1
		c0.2,0.2,0.4,0.1,0.8-0.1c0.1,0.2,0.2,0.2,0.3,0.1c-0.1,0-0.2,0-0.3,0C303.6,28.9,303.4,28.8,303.1,29z M305,29.3
		c-0.2-0.1-0.3-0.1-0.3,0c0.2,0,0.3,0,0.4,0c0.2,0.2,0.4,0.2,0.5,0h0.4c-0.2,0-0.3,0-0.4,0C305.4,29.2,305.2,29.2,305,29.3z"/>
	<path  fill="#eaeaea" d="M377.7,3.7c1.2-0.4,2.4-0.8,3.6-0.9c2.9-0.2,5.9-0.5,8.9-1c3-0.5,6.1-1,9.2-1.7c0.3-0.1,0.7-0.1,1.2-0.1
		c0.9,0,1.2,0.5,1.1,1.5c-0.6,1.2-1.2,2.4-1.6,3.9c-0.4,1.1-1.1,1.6-2,1.7c-0.3,0.1-0.6,0.2-0.9,0.3c-0.3,0.1-0.6,0.2-0.9,0.2
		c-3,0.4-6,0.7-8.9,1.1c-2.9,0.4-5.9,0.8-8.8,1.1c-0.8,0.2-1.6,0.4-2.4,0.6c-0.8,0.2-1.6,0.3-2.3,0.3c-0.1,0-1.4,0.3-4.1,1
		c-2.6,0.7-4.2,1-4.7,1.1l-2.5,0.5c-1.2,1.7-2.7,4.3-4.5,7.7c-1.8,3.7-3.7,7.7-5.9,11.8c-2.1,4.2-4.1,8.2-5.9,12.1
		c0.8-0.2,1.5-0.3,2-0.4c1.2-0.3,2.4-0.6,3.7-0.9c1.3-0.3,2.5-0.8,3.8-1.4c0.1,0,0.2,0,0.5-0.1c0.2,0,0.4-0.2,0.6-0.3
		c0.3,0,0.5,0.2,0.8,0.5c0,0.6,0.3,1.8,0.9,3.6c0,0.8-0.2,1.3-0.7,1.5c-0.4,0.4-1.2,0.7-2.1,0.9c-1.2,0.3-2.5,0.6-3.8,0.9
		c-1.3,0.3-2.5,0.6-3.7,1c-1.4,0.4-2.7,0.7-4,0.7c-0.3,0-0.4,0-0.5,0.1c-0.1,0-0.2,0.1-0.3,0.1c-0.1,0.4-0.4,1.1-0.8,1.9
		c0,0.1,0,0.3,0,0.7c-0.9,2.1-1.9,5-3,8.5c-1.1,3.5-2.2,6.2-3.1,7.8c-0.4,0.7-0.8,1.8-1.2,3.2c-0.8,2.2-1.4,3.9-1.9,4.9
		c-0.9,2.6-1.8,5.1-2.8,7.5c-1,2.4-1.9,4.9-2.8,7.2c-0.4,0.6-0.2,0,0.3-1.7c0.6-1.8,1.1-3.2,1.5-4.4c0.4-1.2,0.5-1.3,0.4-0.5
		c-0.1,0.8-1,4-2.7,9.6c-0.2,0.6-0.5,1.5-0.9,2.5c-0.2,0.6-0.6,0.9-1.3,0.9c-2.7-0.4-4.4-2.3-5.3-5.7c-0.1-0.4,0-1.1,0.3-1.9
		c2.1-6.4,3.2-9.6,3.3-9.6c0,0,1.3-3.2,3.8-9.7c0.3-0.9,0.6-1.7,1.1-2.5c0.4-0.8,0.8-1.7,1.1-2.7c0.3-0.8,0.8-2.2,1.6-4.2
		c0.8-2,1.5-4.1,2.1-6.2c0.1-0.5,0.2-1.1,0.4-1.6c0.2-0.5,0.4-1.1,0.7-1.7c-1.4,0.6-2.6,1-3.5,1.1c-0.4,0.2-1.2,0.6-2.3,1.2
		c-1,0.4-1.8,0.2-2.4-0.7c-0.5-0.4-0.8-1-0.7-1.7c0.1-0.4,0.1-0.8,0.1-1.5c0.1-1,0.7-1.7,1.9-2.1c1.5-0.3,3-0.6,4.5-1.1
		c1.5-0.4,3-0.9,4.5-1.3c0.8-1.9,1.6-3.7,2.5-5.5c0.8-1.8,1.7-3.7,2.6-5.5c0.7-1.5,1.4-3.1,2.1-4.7c0.7-1.6,1.4-3.1,2.1-4.7
		c0.8-1.8,1.6-3.5,2.5-5.3c0.9-1.7,1.7-3.5,2.5-5.4h0.1c-0.9,0.4-1.8,0.6-2.7,0.8c-0.9,0.2-1.8,0.4-2.7,0.7
		c-1.8,0.4-3.5,0.9-5.2,1.3c-1.7,0.4-3.3,0.9-4.9,1.3c-0.9,0.4-1.8,0.7-2.6,1c-0.8,0.3-1.7,0.6-2.5,0.7c-2,0.6-2.8-0.1-2.7-2.1
		c0-1.2,0.3-2.2,0.8-2.8c0.4-0.4,0.8-0.8,1.2-1.3c0.4-0.5,0.9-0.8,1.7-0.9c0.2,0,1.2-0.3,2.9-0.9c3.9-1,6.8-1.8,8.6-2.4
		c2.3-0.6,4-0.9,5.2-0.9c1.2,0,2.1-0.2,2.5-0.7c0.1-0.2,0.4-0.3,0.9-0.3c1.5-0.4,5.6-1.3,12.2-2.9C370.5,5.5,375.1,4.3,377.7,3.7z
		 M329.2,19.4v-0.3V19.4c0,0.1,0,0.3-0.1,0.5c0,0.2,0.1,0.3,0.3,0.3c0-0.1,0-0.2,0-0.3C329.2,19.7,329.2,19.5,329.2,19.4z
		 M350.4,13.7c0.9-0.4,1.2-0.6,0.9-0.7c-0.3-0.1-0.2-0.3,0.5-0.6c-0.4,0.1-0.9,0.2-1.3,0.5c-0.4,0.2-0.7,0.3-1,0.2
		c-1.2,0-2.7,0.4-4.7,1.3c-0.2,0.1-1.2,0.4-3.1,0.9c-0.4,0.1-1.2,0.4-2.5,0.8c-0.3,0-0.4,0.1-0.4,0.4l0.4,0.3c2.4-0.4,4.4-1,6-1.8
		C346.9,14.2,348.6,13.8,350.4,13.7z M382.8,6.1c-0.4-0.2-0.8-0.1-1.5,0.1c-1.9-0.4-3.9-0.1-6.1,1.1c-0.8-0.2-1.4-0.3-1.9-0.3
		c-1.6-0.1-2.4,0.2-2.4,0.9c0,0.3,0.7,0.3,2,0s2.1-0.5,2.3-0.7c0.5,0,1-0.1,1.3-0.3c0.3-0.2,0.6-0.3,1-0.3c0.8,0.3,1.5,0.1,2-0.5
		c0.2-0.2,0.5-0.2,0.9,0c0.4,0.2,0.8,0.2,0.9,0C381.6,6.5,382.1,6.5,382.8,6.1c1.8,0.1,2.5,0,2.3-0.1c-0.3-0.2,0.5-0.1,2.3,0.3
		c1-0.1,1.8-0.3,2.5-0.5c0.1-0.3,0.1-0.4,0.1-0.5l-0.3-0.1c-1.2,0.4-2.5,0.5-3.7,0.4C384.8,5.4,383.7,5.6,382.8,6.1z"/>
	<path  fill="#eaeaea" d="M373.1,59.6c-1.2,2.3-3,5.3-5.3,9c-2.3,3.7-4.4,6.5-6.4,8.4c-0.3,0.3-0.6,0.6-0.9,0.9c-0.3,0.4-0.6,0.7-1,1.1
		c-0.8,0.4-1.4,0.7-1.7,0.7c-2.2,0.3-3.7-0.5-4.4-2.4c-1-2.7-1.1-5.3-0.4-7.8c0.4-1.2,0.9-2.5,1.3-3.8c0.4-1.3,1-2.5,1.7-3.8
		c0.1-0.4,0.4-1.1,0.8-2.1c1.1-3.1,2.4-6.2,3.9-9.2c1.6-3,2.9-5.7,4.2-8c0.3-0.7,0.7-0.9,1.2-0.5c0.8,0.9,1.8,1.4,3.1,1.6
		c1.3,0.4,1.8,1.4,1.3,2.9c0.1-0.4,0-0.1-0.4,1.1c-2,3.6-3.6,7-4.9,10c-1.7,3.2-3.4,6.9-5.2,11.2c-1.1,1.9-1.7,3.9-2,6.3
		c-0.3,0.6-0.3,1.2,0,1.7c0,0.5,0.2,0.6,0.5,0.3c1.7-0.9,3-2,4-3.5c0.8-1,2.4-3.3,4.7-7c2.3-3.7,3.9-6.2,4.6-7.4
		C372.8,58.9,373.2,59.1,373.1,59.6z M354.8,66.1v0.3l0.3-0.3c0-0.2,0-0.3-0.1-0.4c0.1,0,0.2,0,0.3,0c0-0.2,0-0.3,0-0.4
		c0,0.1,0,0.2-0.1,0.4C354.9,65.9,354.8,66,354.8,66.1z M356.7,66.1c-0.6,0.5-0.9,1.3-0.8,2.3l-0.1,0.1v0.3c0-0.3,0-0.4,0.1-0.4
		C356.4,67.7,356.7,67,356.7,66.1c0.3-0.2,0.4-0.6,0.4-1.2c1.3-1.3,2.1-3.1,2.3-5.2c0.4,0,0.8-0.6,1.2-1.7c0.4-0.8,0.9-1.7,1.3-2.7
		c0.4-1,0.8-1.9,1.3-2.8c0.2-0.4,0.4-0.9,0.6-1.4c0.2-0.5,0.5-1,0.7-1.5c0.1-0.1,0-0.3-0.1-0.5l-0.1,0.1c-0.4,0.4-0.7,0.8-1.1,1.5
		c-0.6,1.2-1.2,2.5-1.7,3.7c-0.5,1.2-1,2.5-1.5,3.7c-0.3,0.6-0.4,1.2-0.4,1.7c-0.5,0.4-1.3,1.6-2.3,3.9c-0.1,0.2-0.1,0.6-0.1,1.2
		C356.8,65.1,356.7,65.5,356.7,66.1z M357.2,60.6c-0.4,0.2-0.4,0.5-0.3,1.1c-0.6,0.2-0.8,0.6-0.5,1.2c-0.3,0.1-0.4,0.4-0.4,1.1
		c-0.3,0-0.3,0.1-0.1,0.3c0.1-0.1,0.1-0.2,0.1-0.3c0.2-0.1,0.3-0.5,0.3-1.2c0.4-0.1,0.6-0.4,0.5-1.1c0.3-0.2,0.4-0.6,0.4-1.3
		c0.4,0,0.5-0.1,0.1-0.3C357.4,60.3,357.3,60.5,357.2,60.6z M358.7,57.6v0.1l0.1-0.1c0-0.6,0.1-1,0.4-1.1c0-0.2,0-0.4,0.1-0.5
		c0.1-0.2,0.2-0.4,0.4-0.7c0-0.2-0.1-0.2-0.3-0.1c-0.1,0.4-0.2,0.6-0.3,0.7c-0.1,0.1-0.1,0.3-0.1,0.6c-0.1,0.2-0.2,0.4-0.3,0.5
		C358.7,57.2,358.7,57.4,358.7,57.6z M360.5,53.6c0.3-0.1,0.4-0.5,0.4-1.3c0.4-0.2,0.5-0.5,0.4-1.1c0.4-0.1,0.8-0.4,0.9-1.1
		c-0.1-0.1-0.1-0.2-0.1-0.4c0,0.1,0,0.2-0.1,0.3c-0.1,0.3-0.3,0.7-0.5,1.2c-0.1,0.3-0.2,0.7-0.4,1.3c-0.1,0.2-0.2,0.4-0.3,0.6
		C360.6,53.4,360.5,53.5,360.5,53.6l-0.1,0.1v0.1C360.4,53.7,360.5,53.6,360.5,53.6z M362,57.3c0,0.2-0.1,0.3-0.3,0.4
		c0,0.1,0,0.2,0.1,0.4c0.1-0.1,0.1-0.2,0.1-0.3c0-0.2,0-0.4,0-0.7h0.1l0.1-0.1L362,57.3z M365.5,46.9c0.1,0,0.2,0,0.4,0v-0.1
		c-0.2,0-0.3,0.1-0.3,0.3h-0.1c-0.1,0-0.1,0.1-0.1,0.3C365.4,47.2,365.5,47,365.5,46.9z M374.4,37.8c-0.3,1-0.8,1.8-1.5,2.3
		c-0.8,0.6-1.3,1.3-1.5,2.2c-0.2,0.3-1.1,0-2.7-0.8c-1.6-0.8-2.3-1.4-2.1-1.9c0.4-1.5,0.6-2.3,0.7-2.5c0.1-0.1,0.3-1,0.6-2.5
		c1.1-1.3,2.3-1.4,3.7-0.1c1.4,1.2,2.4,2.2,3.1,2.9C375.4,36.6,375.3,36.7,374.4,37.8z"/>
	<path  fill="#eaeaea" d="M398.1,59.9c-1.3,2.7-3.1,6.4-5.4,11.2c-2.3,4.8-4.3,8.3-6.2,10.4c-2.2,2.7-4.6,4.4-7.2,4.9c-1.6,0.2-2.7,0.3-3.5,0.3
		c-2.7,0-4.4-1.2-5.3-3.5c-2.3-4.3-3-8.7-2-13.2c1.7-9,4.4-17.8,8.2-26.5c0.8-1.9,1.6-3.7,2.4-5.7c0.8-1.9,1.7-3.8,2.7-5.8
		c-0.3,0.1-0.6,0.1-1.1,0.1c-0.6,0-1.3,0-2,0.1c-0.7,0-1.4,0.1-2,0.1c-0.6,0.1-1.2,0.2-1.7,0.2c-0.5,0-1.1,0.1-1.7,0.1
		c-0.4,0-0.6-0.1-0.7-0.4c-0.4-0.4-0.4-0.7-0.3-1.1c0.3-0.6,0.5-1.1,0.7-1.5c0.4-0.4,0.8-0.7,1.3-0.7c1.7,0.2,3.2,0.1,4.5-0.1
		c0.1,0,0.2,0,0.3,0s0.3,0,0.6,0c0.6,0,1.2,0,1.7-0.1c0.5-0.1,1.1-0.2,1.7-0.3c1.1-1.7,2.1-3.3,3.3-5c1.1-1.6,2.1-3.3,3-5.1
		c0.3-0.2,0.5-0.5,0.7-1.1c0.5-1.1,0.9-1.7,1.1-1.9c1.2-0.3,2.5-0.3,3.9,0c2,0.4,3.1,1.8,3.1,4.3c0,0.3-0.1,0.5-0.2,0.8
		c-0.1,0.3-0.2,0.5-0.2,0.8l-4.4,7c0.1,0,0.2,0,0.3,0c0.1,0,0.3,0,0.5,0c0.6,0.1,1.3,0.1,2,0.1c0.7,0,1.4-0.1,2.1-0.1
		c0.5,0,1.3,0,2.2,0.1c0.9,0,1.7,0,2.3-0.1c0.4-0.1,0.6-0.1,0.7-0.1l0.3,0.3c0,0.4,0,0.7,0.1,1c0,0.3,0.2,0.6,0.3,0.9
		c0.3,0.8-0.1,1.3-1.2,1.6c-0.1,0-0.2,0-0.4,0c-0.7,0-1.4,0-2.2,0.1c-0.8,0-1.4,0-2.1-0.1c-2.4-0.2-4.7-0.2-7,0h-0.1
		c-3.3,5.3-6.2,11.3-8.8,17.8c-3.5,8.8-6.1,17-7.7,24.6c-0.7,3-0.7,5.7,0,8c0.4,1.4,1.2,2,2.5,1.7c4.5-0.9,8.4-4.3,11.6-10.2
		c3.2-5.9,5.7-10.7,7.4-14.4c0.3-0.9,0.7-1.2,1.3-0.8C398,59.1,398.2,59.5,398.1,59.9z M371.3,68.4c0.2-0.8,0.3-1.9,0.3-3.3
		c-0.2-0.2-0.3-0.4-0.3-0.5c-0.2,0-0.3,0.1-0.3,0.4c-0.3,1.5-0.4,2.3-0.4,2.4c0,1,0,1.9,0.1,2.7c0,0.8,0,1.6-0.2,2.4
		c0,0.1,0,0.3,0.1,0.5c0.2-0.3,0.3-0.4,0.3-0.5C371.1,70.1,371.2,68.8,371.3,68.4z M371.7,62.2c0,0.3,0,0.5,0,0.7l0.1,0.1
		c0.1-0.1,0.2-0.1,0.3-0.1c0.4-1.2,0.5-1.6,0.3-1.2l-0.1-0.4c-0.1,0.1-0.2,0.2-0.4,0.4C371.8,61.8,371.7,62,371.7,62.2z M372.4,59.1
		v0.3l0.4,0.4c0.1,0,0.2-0.1,0.4-0.4c-0.1,0.3,0-0.1,0.4-1.1c0-0.4,0.1-0.8,0.3-1.3c0.2-0.5,0.2-1,0.1-1.7c-0.6,0.4-1,0.8-1,1.4
		c0,0.6-0.2,1-0.3,1.4C372.5,58.3,372.4,58.6,372.4,59.1z M374.4,54c0.3-0.2,0.4-0.3,0.4-0.4c0.4-1.2,0.9-2.5,1.5-3.9
		c0.5-1.4,1.2-2.7,2-3.9c0.1-0.1,0.1-0.4,0.1-0.8c0-0.2-0.1-0.3-0.3-0.3c-0.2,0.6-0.5,0.9-1.1,0.9c-0.5,0-0.9,0.1-1.1,0.4
		c-0.4,0.4-0.4,0.7,0.1,0.7c0.4,0,0.6,0.2,0.5,0.7c-0.4,0.9-0.8,1.8-1.3,2.8c-0.2,0.6-0.4,1.2-0.6,1.7c-0.2,0.5-0.4,1.1-0.5,1.6
		c0,0.1,0,0.2,0.1,0.3C374.4,53.8,374.4,53.9,374.4,54z M380.5,38.6l-0.1-0.1c-0.4,0.4-0.7,0.7-1.1,0.9c-0.3,0.3-0.3,0.6,0,0.9
		c0.6,0.6,1.1,0.6,1.5,0c0.5-1.2,1-2.2,1.3-2.9c0-0.1,0-0.2-0.1-0.4c0-0.2-0.1-0.4-0.1-0.7c-0.3-0.3-0.4-0.4-0.5-0.4
		c-0.1,0-0.2,0.1-0.4,0.3c-0.2,0.7-0.5,1.2-0.9,1.6C380.1,37.7,380.2,38,380.5,38.6z M380.2,29.5l-0.3-0.1l-0.1,0.1l0.1,0.1
		L380.2,29.5c0.2,0.2,0.4,0.2,0.8,0c0.1,0.1,0.1,0.1,0.1,0H381C380.9,29.4,380.6,29.4,380.2,29.5z M382.2,29.4h-0.1
		c-0.1,0-0.2,0-0.3,0.1h0.1C382,29.4,382.1,29.4,382.2,29.4z M383,34.3c0,0.2,0,0.4,0,0.5c0,0.2,0,0.3,0.1,0.4
		c0.1-0.1,0.1-0.2,0.1-0.4c0-0.1,0-0.2,0.1-0.4c0.1-0.2,0.2-0.4,0.4-0.7l-0.3-0.1c-0.3,0-0.4,0-0.4,0.1C383.1,33.9,383,34,383,34.3z
		 M393,29.3l0.1-0.1h0.3c-0.1,0-0.2,0-0.3,0L393,29.3z M394.2,29l-0.1,0.1c0,0.1,0,0.1,0.1,0.1c0.2,0.2,0.4,0.1,0.8-0.1
		c0.1,0.2,0.2,0.2,0.3,0.1c-0.1,0-0.2,0-0.3,0C394.7,28.9,394.5,28.8,394.2,29z M396.1,29.3c-0.2-0.1-0.3-0.1-0.3,0
		c0.2,0,0.3,0,0.4,0c0.2,0.2,0.4,0.2,0.5,0h0.4c-0.2,0-0.3,0-0.4,0C396.5,29.2,396.3,29.2,396.1,29.3z"/>
	<path  fill="#eaeaea" d="M433.8,60.1c-0.9,1.2-2.9,4.2-6.1,8.8c-3.1,4.7-5.1,7.5-5.9,8.6c-0.5,0.8-1.4,1.9-2.7,3.2c-1.2,1.1-2.5,1.1-3.7,0
		c-2.4-1.7-3.7-3.6-3.9-5.7c-0.3-1.8,0-4,0.8-6.6c0.9-2.9,1.7-5.6,2.3-8.1c0.7-2.5,1.7-5.2,3.3-8.1c2.2-4.1,3.1-6.2,2.8-6.4
		c-0.9,0.2-1.8,0.9-2.8,2.1c-1.1,1.4-2.1,2.8-3.2,4c-1.1,1.2-2.1,2.5-3.2,3.9c-1.9,2.4-3.7,4.9-5.5,7.4c-1.8,2.5-3.4,5.1-4.9,7.8
		c-0.9,1.7-1.9,3.1-3.1,4.1c-0.3,0.3-0.8,1-1.6,2.3c-0.3,0.3-0.5,0.6-0.7,0.9c-0.2,0.4-0.4,0.7-0.6,1.1c-0.9,1.3-2.1,1.5-3.6,0.5
		c-2.4-1.2-3-3.2-1.7-6.1c0.8-1.5,1.6-3.1,2.3-4.7c0.8-1.6,1.4-3.3,1.9-5c0.2-0.5,0.4-1,0.6-1.5c0.2-0.4,0.4-0.9,0.5-1.5
		c1.8-3.4,3.4-6.8,4.9-10.3c1.5-3.5,3-7.1,4.5-10.7c0.4-1.5,1.3-1.9,2.7-1.3c1.2,0.6,2.3,1.3,3.5,2.1c1.3,1,1.7,2.3,1.1,3.9
		c-1,2-2,3.9-3,5.9c-1,2-2,3.9-2.9,5.7c-0.7,1.6-1.4,3.1-2.2,4.5c-0.8,1.4-1.4,2.8-1.9,4.3v0.8c0.2-0.1,0.3-0.2,0.4-0.4
		c0.1-0.2,0.2-0.3,0.5-0.5c0.2-0.1,0.4-0.4,0.6-0.7c1.5-2.4,3.2-4.8,5.1-7.1c1.9-2.3,3.9-4.7,5.9-7.1c0.7-0.9,1.2-1.7,1.6-2.3
		c0.4-0.7,1-1.5,1.9-2.6c0.7-0.9,1.5-1.8,2.3-2.9c0.8-1,1.7-2,2.5-2.9c0.6-0.6,1.1-0.8,1.3-0.5c0.6,0.4,1.2,0.7,1.8,0.8
		c0.6,0.1,1.2,0.2,1.8,0.4c0.3,0.3,0.8,0.8,1.5,1.5c0.8,0.7,1.1,1.2,1.1,1.5c0,2-0.6,4-1.7,6.1c-1.2,2.1-2.2,4.1-3.1,5.9
		c-0.5,0.9-1.2,2.3-2,4.1c-0.1,0-0.1,0-0.1-0.1c-0.2,0-0.3,0-0.4,0c-0.2,0.2-0.3,0.4-0.3,0.7c0,0.1,0,0.2,0.1,0.3
		c0,0.1,0.1,0.1,0.2,0.1c-0.4,0.9-0.7,1.7-0.9,2.5s-0.6,1.6-0.9,2.4c-0.3-0.4-0.4-0.5-0.5-0.5c-0.4,0-0.5,0.3-0.5,0.8
		c0,0.1,0.2,0.4,0.7,0.8l0.1-0.5c-0.2,0.9-0.4,1.6-0.5,2.1l-0.4-0.1c0-0.2,0-0.4,0-0.5l-0.1-0.1V67c0,0.2,0.1,0.3,0.3,0.3v1.1
		l-0.1,0.1v0.3l0.1-0.3c-1.5,1-2,2.3-1.6,3.9c-0.1,0.1-0.3,0.2-0.7,0.3c-0.4,0.6-0.7,1.2-1.1,1.9c-0.4,0.6-0.7,1.2-1.1,1.9
		c-0.1,0.1-0.1,0.2-0.1,0.4c0,0.2,0,0.4,0.1,0.5c0.4,0.3,0.5,0.3,0.5,0c1.2-1.5,1.9-3.2,2.3-5.1c0.3-0.3,0.6-0.7,1.1-1.3l-0.3,0.9
		c-0.5,2.3-0.7,3.8-0.5,4.4c0.9,0,1.6-0.3,2.2-0.9c0.6-0.6,1.2-1.2,1.8-1.9c0.4-0.5,2.1-2.9,5.1-7s4.6-6.4,5.1-6.8
		c0.3-0.4,0.6-0.6,0.9-0.5C434.1,59.1,434.1,59.5,433.8,60.1z M397.9,70.6c0-0.2,0-0.3-0.1-0.4c-0.3,0-0.4,0-0.5,0.1
		c0,0.2,0,0.3-0.1,0.5c0,0.1-0.1,0.2-0.1,0.3c0,0.1,0,0.2,0.1,0.4c0.1,0,0.3-0.1,0.5-0.3C397.9,71.2,397.9,71,397.9,70.6z
		 M399.7,59.9c-0.1,0-0.2,0-0.2-0.1c0-0.1-0.1-0.2-0.1-0.4l-0.1,0.3c-0.2,0.4-0.3,0.6-0.3,0.7c0.1,0.3,0.2,0.4,0.3,0.4
		c0.1,0,0.1-0.1,0.1-0.3C399.6,60.2,399.7,60,399.7,59.9z M401.9,53.6c-0.3,0.2-0.5,0.4-0.8,0.7c0.2,0.4,0.4,0.7,0.8,0.7
		c0.4,0,0.5-0.3,0.4-0.8C402.3,54.4,402.2,54.2,401.9,53.6z M402.3,52c0-0.1,0-0.2,0-0.5c0-0.2,0-0.5,0-0.7c1.4-0.7,2-1.9,1.7-3.7
		c0.3-0.2,0.4-0.3,0.5-0.4c0.4-0.6,0.7-1.2,1.1-1.9c0.4-0.6,0.7-1.2,1.1-1.9c0.2-0.1,0.3-0.2,0.3-0.4c-0.2-0.2-0.3-0.4-0.3-0.5
		c-0.1,0-0.2,0-0.4,0c-1.2,1.6-2,3.3-2.3,5.1c-1.1,1.1-1.6,2.4-1.6,3.9c-0.5,0.4-0.5,0.8,0,1.1c0,0.1,0,0.3,0,0.5l0.1,0.1
		c0.1-0.1,0.1-0.2,0.1-0.4c-0.1,0-0.2,0-0.3-0.1C402.4,52.2,402.3,52.1,402.3,52z M424.5,48.7c0,0.3,0,0.4,0.1,0.5
		c0.2-0.1,0.3-0.2,0.4-0.3c0.2-0.3,0.3-0.5,0.3-0.8c-0.2-0.2-0.3-0.3-0.3-0.4c-0.1,0.1-0.2,0.2-0.4,0.3
		C424.6,48.1,424.5,48.3,424.5,48.7z"/>
	<path  fill="#eaeaea" d="M444.3,57.6c-1.2-0.3-1.8-0.4-1.7-0.4c-1,0.4-1.5,0.6-1.6,0.8c-3.4,4.6-5.5,9.6-6.3,14.9v1.5c0,2.5,1.2,3.4,3.5,2.7
		c0.6-0.3,1.1-0.5,1.3-0.8c2.7-2,5.9-4.7,9.6-8c3.6-3.3,6.8-6.3,9.4-8.8c0-0.1,0.2-0.2,0.7-0.4c0,0.2,0,0.4,0.1,0.8
		c-1.2,2-3.9,5.2-7.9,9.5c-4,4.3-6.8,6.7-8.3,7.2c-1,1-1.9,1.7-2.8,2.1c-2,1.2-3.9,1.5-5.7,0.9c-1.9-0.7-3.1-2.1-3.7-4.2
		c-1.5-4.3-1.6-8.4-0.3-12.1c2.6-8,6.5-14.4,11.8-19.2c0.6-0.6,1.3-1.2,2.2-1.7c0.8-0.5,1.7-1,2.5-1.7c1.2-0.8,2.7-1,4.5-0.7
		c2.5,0.9,4.4,1.9,5.9,2.9c1.2,1.1,1.4,2.4,0.8,3.9c-2.4,4.9-6.1,8.3-11,10.2c-0.6,0.4-1.2,0.5-1.7,0.5
		C445,57.6,444.6,57.6,444.3,57.6z M436.1,60c0.7-0.1,1.2-0.8,1.5-2.3c0.3-0.1,0.5-0.3,0.7-0.5c0-0.1,0-0.2,0-0.3
		c-0.1,0-0.2,0-0.4,0.1c0,0.1,0,0.3,0,0.7c-1.1,0.7-1.6,1.5-1.6,2.3c-0.5,0.9-0.8,1.5-0.8,1.7c-1,0.9-1.6,1.9-2,3
		c-0.4,1.1-0.7,2.2-1.1,3.4c0,0.1,0.1,0.2,0.4,0.4l0.3-0.1c0.3-1.1,0.7-2.1,1.3-3.3c0.6-1.1,0.9-2.3,0.9-3.7
		C435.6,61,435.9,60.5,436.1,60z M440.6,53.2l0.3-0.1c0.1-0.1,0.1-0.2,0.1-0.3c-0.1,0-0.1,0-0.1,0.1C440.7,53,440.6,53.1,440.6,53.2
		z M455.6,45.4c-0.5-0.7-0.7-1.1-0.5-1.1c-0.6-0.3-1.1-0.2-1.5,0.1c-0.9,0.8-1.8,1.6-2.8,2.3c-1,0.8-1.9,1.5-2.7,2.3
		c-0.7,0.7-1.4,1.5-2,2.3c-0.6,0.8-1.2,1.5-1.9,2.1v0.7c0.2,0.3,0.4,0.4,0.8,0.4c4.3-1.5,7.5-3.9,9.7-7.2c0.2-0.4,0.3-0.7,0.4-1.1
		C455.3,45.9,455.5,45.6,455.6,45.4z"/>
	<path  fill="#eaeaea" d="M465.1,83.5c-1,0.1-2,0.2-2.9,0.5c-1,0.2-1.8,0.3-2.5,0.2c-1.5-0.3-2.9-0.5-4.3-0.7c-1.4-0.2-2.8-0.5-4.3-0.9
		c-1-0.2-1.7-0.6-2.3-1.3c-0.5-0.7-1.2-1.4-2-2v-1.1c0.2-0.4,0.3-0.6,0.5-0.9c0.1-0.2,0.2-0.5,0.3-0.9c1.1-1.9,2.1-3.7,3.2-5.7
		c1.1-1.9,2.1-3.8,3.2-5.8c0.5-1.1,1-2.1,1.5-3.2c0.4-1.1,1-2.1,1.6-3.2c0.4-1.1,0.8-2.1,1.3-3.1c0.5-1,1-2,1.5-3
		c1.5-2.9,2.4-5.1,2.8-6.5c0.7-3,2.4-6.3,5.2-9.8c0.3-0.4,0.8-0.9,1.7-1.5c0.7-0.3,1.5-0.2,2.5,0.3c1,0.4,1.8,0.8,2.5,0.9
		c0.1,0,0.5,0.3,1.3,0.9c0.8,0.6,1.1,1,1,1.4c-0.6,1-1.7,2.3-3.3,3.9c-1.6,1.6-2.6,2.8-3.1,3.7c-2.1,4-2.4,7.3-0.8,9.8
		c0.4,0.8,0.9,1.6,1.3,2.4c0.4,0.8,0.9,1.6,1.5,2.3c0.7,1.2,1.4,2.4,2,3.6c1.9,4.1,1.2,8.5-2.1,13.3c-1.2,1.7-2.7,3.3-4.7,4.9
		c-0.5,0.3-1,0.5-1.5,0.8C465.7,83.1,465.3,83.3,465.1,83.5z M456.4,64.4c0-0.1,0-0.2,0-0.3c0-0.1,0-0.2,0-0.3l-0.3-0.4
		c0,0.2,0,0.3,0,0.4c0,0.1,0,0.2,0.1,0.3c0.1,0.1,0.2,0.1,0.3,0.1l-0.4,1.2c-1.4,1.3-2.6,3.2-3.6,5.6c-0.3,0.9-0.6,1.7-1,2.5
		c-0.4,0.8-0.8,1.6-1.1,2.5c-0.3,0.8-0.2,1.5,0.1,2.2c0.3,0.7,0.8,0.8,1.4,0.5c0.7-0.2,1.3-0.2,1.8-0.2c0.5,0,1,0.1,1.7,0.1
		c0.4,0,0.8,0,1.3,0.1c0.5,0,1,0,1.5-0.1c4.6-0.1,8-2.8,10.2-8.2c0.9-2.2,1-4.1,0.3-5.7c-0.7-1.2-1.7-2.9-2.9-5.2
		c-0.6-0.8-1.2-1.6-1.6-2.3c-0.4-0.8-0.9-1.5-1.5-2.3c-0.2-0.4-0.4-0.5-0.5-0.5l-0.5,0.7C460.2,58,458.5,61.2,456.4,64.4z
		 M468.8,74.3c1,0,1.6-0.2,1.7-0.7c0.9-2.3,0.9-4.3,0-5.9c0,0.2-0.2,0.1-0.5-0.3c-0.1,0.2-0.1,0.4-0.1,0.5c-0.2,1.2-0.3,2.2-0.5,3.3
		c-0.1,1-0.3,2-0.5,3c-1.4,1.2-2.3,2.3-2.5,3.2c-0.1,0.1,0,0.3,0.1,0.7c0.1,0,0.2,0,0.3-0.1C468.2,76.7,468.9,75.4,468.8,74.3z"/>
	<path  fill="#eaeaea" d="M491,83.5c-1,0.1-2,0.2-2.9,0.5c-1,0.2-1.8,0.3-2.5,0.2c-1.5-0.3-2.9-0.5-4.3-0.7c-1.4-0.2-2.8-0.5-4.3-0.9
		c-1-0.2-1.7-0.6-2.3-1.3c-0.5-0.7-1.2-1.4-2-2v-1.1c0.2-0.4,0.3-0.6,0.5-0.9c0.1-0.2,0.2-0.5,0.3-0.9c1.1-1.9,2.1-3.7,3.2-5.7
		c1.1-1.9,2.1-3.8,3.2-5.8c0.5-1.1,1-2.1,1.5-3.2c0.4-1.1,1-2.1,1.6-3.2c0.4-1.1,0.8-2.1,1.3-3.1c0.5-1,1-2,1.5-3
		c1.5-2.9,2.4-5.1,2.8-6.5c0.7-3,2.4-6.3,5.2-9.8c0.3-0.4,0.8-0.9,1.7-1.5c0.7-0.3,1.5-0.2,2.5,0.3c1,0.4,1.8,0.8,2.5,0.9
		c0.1,0,0.5,0.3,1.3,0.9c0.8,0.6,1.1,1,1,1.4c-0.6,1-1.7,2.3-3.3,3.9c-1.6,1.6-2.6,2.8-3.1,3.7c-2.1,4-2.4,7.3-0.8,9.8
		c0.4,0.8,0.9,1.6,1.3,2.4c0.4,0.8,0.9,1.6,1.5,2.3c0.7,1.2,1.4,2.4,2,3.6c1.9,4.1,1.2,8.5-2.1,13.3c-1.2,1.7-2.7,3.3-4.7,4.9
		c-0.5,0.3-1,0.5-1.5,0.8C491.6,83.1,491.3,83.3,491,83.5z M482.4,64.4c0-0.1,0-0.2,0-0.3c0-0.1,0-0.2,0-0.3l-0.3-0.4
		c0,0.2,0,0.3,0,0.4c0,0.1,0,0.2,0.1,0.3c0.1,0.1,0.2,0.1,0.3,0.1l-0.4,1.2c-1.4,1.3-2.6,3.2-3.6,5.6c-0.3,0.9-0.6,1.7-1,2.5
		c-0.4,0.8-0.8,1.6-1.1,2.5c-0.3,0.8-0.2,1.5,0.1,2.2c0.3,0.7,0.8,0.8,1.4,0.5c0.7-0.2,1.3-0.2,1.8-0.2c0.5,0,1,0.1,1.7,0.1
		c0.4,0,0.8,0,1.3,0.1c0.5,0,1,0,1.5-0.1c4.6-0.1,8-2.8,10.2-8.2c0.9-2.2,1-4.1,0.3-5.7c-0.7-1.2-1.7-2.9-2.9-5.2
		c-0.6-0.8-1.2-1.6-1.6-2.3c-0.4-0.8-0.9-1.5-1.5-2.3c-0.2-0.4-0.4-0.5-0.5-0.5l-0.5,0.7C486.1,58,484.4,61.2,482.4,64.4z
		 M494.7,74.3c1,0,1.6-0.2,1.7-0.7c0.9-2.3,0.9-4.3,0-5.9c0,0.2-0.2,0.1-0.5-0.3c-0.1,0.2-0.1,0.4-0.1,0.5c-0.2,1.2-0.3,2.2-0.5,3.3
		c-0.1,1-0.3,2-0.5,3c-1.4,1.2-2.3,2.3-2.5,3.2c-0.1,0.1,0,0.3,0.1,0.7c0.1,0,0.2,0,0.3-0.1C494.2,76.7,494.8,75.4,494.7,74.3z"/>
</g>
</svg>
